<?xml version="1.0" encoding="UTF-8" standalone="no"?>
<!-- Created with Inkscape (http://www.inkscape.org/) -->

<svg
   width="150mm"
   height="50mm"
   viewBox="0 0 150 50"
   version="1.1"
   id="svg1"
   inkscape:version="1.3 (0e150ed6c4, 2023-07-21)"
   sodipodi:docname="textbanner.svg"
   xmlns:inkscape="http://www.inkscape.org/namespaces/inkscape"
   xmlns:sodipodi="http://sodipodi.sourceforge.net/DTD/sodipodi-0.dtd"
   xmlns="http://www.w3.org/2000/svg"
   xmlns:svg="http://www.w3.org/2000/svg">
  <sodipodi:namedview
     id="namedview1"
     pagecolor="#ffffff"
     bordercolor="#666666"
     borderopacity="1.0"
     inkscape:showpageshadow="2"
     inkscape:pageopacity="0.0"
     inkscape:pagecheckerboard="0"
     inkscape:deskcolor="#d1d1d1"
     inkscape:document-units="mm"
     inkscape:zoom="2.1041948"
     inkscape:cx="233.58104"
     inkscape:cy="140.90901"
     inkscape:window-width="2560"
     inkscape:window-height="1377"
     inkscape:window-x="-8"
     inkscape:window-y="456"
     inkscape:window-maximized="1"
     inkscape:current-layer="layer1" />
  <defs
     id="defs1">
    <rect
       x="115.00837"
       y="0"
       width="414.41031"
       height="80.435829"
       id="rect3" />
    <rect
       x="114.05789"
       y="-0.0019532088"
       width="473.34021"
       height="80.437782"
       id="rect2" />
    <rect
       x="115.00837"
       y="0"
       width="414.41031"
       height="80.435829"
       id="rect4" />
  </defs>
  <g
     inkscape:label="Layer 1"
     inkscape:groupmode="layer"
     id="layer1"
     transform="translate(-116.94584,-100.80573)">
    <g
       id="g16"
       transform="matrix(0.58542298,0,0,0.58542298,67.186616,47.169642)"
       style="display:inline;fill:none;stroke:#000000;stroke-width:1.35628;stroke-dasharray:none;stroke-opacity:1">
      <path
         id="path5"
         style="color:#000000;fill:#000000;stroke:none;stroke-width:1.35406;stroke-linecap:square;stroke-dasharray:none;paint-order:stroke fill markers"
         d="m -14.834857,-66.593668 v 2.146585 c -1.9e-4,8.311392 5.7344382,15.554106 14.35981507,20.590487 5.51161033,3.218244 12.27538193,5.606916 19.79597193,6.916463 v 24.030598 L 9.3769456,4.3133223 C 8.6221215,5.4275698 7.9447062,6.5977984 7.3530229,7.8175521 L -15.972269,48.217949 H 32.705025 81.385106 L 79.531237,45.006435 58.023573,7.7534334 C 57.765252,7.22439 57.488276,6.7077788 57.198393,6.1978564 A 2.1416834,2.1416834 0 0 0 57.08967,5.9831979 2.1416834,2.1416834 0 0 0 57.031126,5.9107158 c -0.30864,-0.528322 -0.628813,-1.0497809 -0.970144,-1.555577 -0.0049,-0.00726 -0.009,-0.015048 -0.01394,-0.022302 L 46.08912,-12.917899 v -24.022234 c 7.523251,-1.309467 14.289445,-3.697921 19.801547,-6.916463 8.625377,-5.036381 14.359973,-12.279095 14.359815,-20.590487 v -2.146585 z m 5.029141,4.287594 h 85.021482 c -0.905161,5.505652 -4.593341,10.73009 -11.482835,14.752891 -7.806087,4.558015 -18.828977,7.47123 -31.027906,7.47123 -12.19893,0 -23.2134563,-2.913215 -31.0195433,-7.47123 -6.8894943,-4.022801 -10.5860375,-9.247239 -11.4911977,-14.752891 z m 33.411452,25.984826 c 2.894206,0.332746 5.879977,0.509608 8.93481,0.515738 l -8.93481,15.474925 z m 18.204153,0 v 15.990663 l -7.248208,-12.553339 -1.686602,-2.921586 c 3.054824,-0.0063 6.040125,-0.182787 8.93481,-0.515738 z m -9.104864,8.795422 9.389217,16.255501 3.70495,6.4174517 c -3.914962,-2.0661565 -8.368663,-3.2421792 -13.094167,-3.2421792 -4.723285,0 -9.174959,1.1750462 -13.088591,3.2393914 z m 0,23.7127918 c 8.085226,0 15.20996,4.00149456 19.525557,10.1307648 L 31.637308,18.20758 a 2.1416834,2.1416834 0 0 0 -0.78894,2.924373 2.1416834,2.1416834 0 0 0 2.929949,0.783364 L 54.374379,10.028256 c 1.410514,3.050096 2.202341,6.447883 2.202341,10.03598 0,13.210078 -10.661586,23.871695 -23.871695,23.871695 -13.210109,0 -23.871695,-10.661617 -23.871695,-23.871695 0,-3.628434 0.8091948,-7.06273 2.249732,-10.139128 L 13.106985,6.4180904 C 17.415089,0.23127555 24.575101,-3.8130342 32.705025,-3.8130342 Z M 4.5764016,21.193284 C 4.956848,30.778639 10.150928,39.142996 17.804381,43.935931 H -8.5540063 Z m 56.2600344,0 13.130408,22.742647 H 47.605668 C 55.259126,39.142994 60.455994,30.778646 60.836436,21.193284 Z"
         transform="matrix(0.31663976,0,0,0.31663976,119.42547,137.23271)" />
    </g>
    <path
       style="font-size:69.3333px;line-height:1.25;font-family:'IBM Plex Sans';-inkscape-font-specification:'IBM Plex Sans';letter-spacing:-5.18561px;white-space:pre;display:inline;fill:#000000;stroke:none;stroke-width:0.358849;stroke-dasharray:none;stroke-opacity:1"
       d="m 176.36242,118.44095 h -0.1489 l -1.75711,3.48444 -4.97352,9.05359 -4.97351,-9.05359 -1.75711,-3.48444 h -0.14891 v 18.00602 h -2.44208 v -21.28198 h 3.33552 l 5.95632,11.19785 h 0.1489 l 5.98609,-11.19785 h 3.2164 v 21.28198 h -2.44209 z m 16.68384,17.64865 c -0.89344,0 -1.53871,-0.23825 -1.9358,-0.71476 -0.37723,-0.4765 -0.61548,-1.07213 -0.71475,-1.78689 h -0.14892 c -0.33751,0.953 -0.89344,1.66777 -1.66775,2.14427 -0.77433,0.4765 -1.69755,0.71476 -2.76969,0.71476 -1.62805,0 -2.89873,-0.41694 -3.81203,-1.25083 -0.89345,-0.83388 -1.34017,-1.96558 -1.34017,-3.39509 0,-1.44936 0.52614,-2.56122 1.57842,-3.33553 1.07214,-0.77432 2.72997,-1.16148 4.97351,-1.16148 h 3.03771 v -1.51885 c 0,-1.092 -0.29781,-1.92588 -0.89344,-2.50166 -0.59563,-0.57577 -1.50892,-0.86366 -2.7399,-0.86366 -0.93314,0 -1.7174,0.20847 -2.35274,0.62541 -0.61548,0.41695 -1.13169,0.97286 -1.54863,1.66777 l -1.42952,-1.34018 c 0.41694,-0.83387 1.08206,-1.53871 1.99537,-2.11448 0.91329,-0.59563 2.06485,-0.89345 3.45465,-0.89345 1.86631,0 3.31568,0.45666 4.3481,1.36996 1.03242,0.9133 1.54865,2.18398 1.54865,3.81203 v 8.45795 h 1.7571 v 2.08471 z m -6.84974,-1.66777 c 0.59563,0 1.14162,-0.0695 1.63798,-0.20847 0.49636,-0.13898 0.92322,-0.33752 1.28061,-0.59563 0.35737,-0.2581 0.63533,-0.55592 0.83387,-0.89345 0.19855,-0.33752 0.29781,-0.70483 0.29781,-1.10192 v -2.53142 h -3.15683 c -1.36995,0 -2.3726,0.19854 -3.00794,0.59563 -0.61548,0.39709 -0.92322,0.97286 -0.92322,1.72733 v 0.62541 c 0,0.75447 0.26803,1.34016 0.8041,1.75711 0.55593,0.41694 1.30046,0.62541 2.23362,0.62541 z m 14.72906,2.02515 c -1.42952,0 -2.6307,-0.26804 -3.60357,-0.80411 -0.953,-0.55591 -1.77696,-1.29052 -2.47186,-2.20383 l 1.69754,-1.36995 c 0.59563,0.75447 1.26076,1.34017 1.99537,1.75711 0.7346,0.39709 1.58835,0.59563 2.56121,0.59563 1.01257,0 1.79681,-0.2184 2.35274,-0.65519 0.57577,-0.43679 0.86366,-1.05228 0.86366,-1.84645 0,-0.59563 -0.19854,-1.10192 -0.59563,-1.51887 -0.37723,-0.43679 -1.07213,-0.73461 -2.0847,-0.89344 l -1.22105,-0.17868 c -0.71475,-0.0992 -1.36994,-0.24818 -1.96558,-0.44673 -0.59562,-0.2184 -1.12177,-0.49636 -1.57842,-0.83389 -0.43679,-0.35737 -0.78425,-0.79417 -1.04235,-1.31038 -0.23825,-0.51621 -0.35738,-1.1317 -0.35738,-1.84645 0,-0.75447 0.13899,-1.40967 0.41694,-1.96558 0.27796,-0.57578 0.65519,-1.05228 1.1317,-1.42952 0.49636,-0.37723 1.08206,-0.65519 1.75711,-0.83388 0.67505,-0.19854 1.39973,-0.29782 2.17404,-0.29782 1.25084,0 2.29319,0.2184 3.12707,0.6552 0.85374,0.4368 1.59827,1.04235 2.23362,1.81668 l -1.57843,1.4295 c -0.33752,-0.4765 -0.83388,-0.90337 -1.48907,-1.2806 -0.65519,-0.39709 -1.47914,-0.59563 -2.47187,-0.59563 -0.99271,0 -1.74718,0.21839 -2.2634,0.65519 -0.49635,0.41695 -0.74453,0.99272 -0.74453,1.72733 0,0.75446 0.24818,1.30046 0.74453,1.63799 0.51622,0.33752 1.25083,0.58569 2.20384,0.74453 l 1.19126,0.17869 c 1.70747,0.2581 2.91859,0.75447 3.63334,1.48908 0.71475,0.71475 1.07214,1.65783 1.07214,2.82924 0,1.48908 -0.50628,2.66048 -1.51886,3.51422 -1.01257,0.85374 -2.40237,1.28061 -4.16941,1.28061 z m 12.09744,0 c -1.42951,0 -2.63069,-0.26804 -3.60356,-0.80411 -0.953,-0.55591 -1.77696,-1.29052 -2.47187,-2.20383 l 1.69755,-1.36995 c 0.59563,0.75447 1.26075,1.34017 1.99536,1.75711 0.73461,0.39709 1.58835,0.59563 2.56122,0.59563 1.01256,0 1.79681,-0.2184 2.35274,-0.65519 0.57577,-0.43679 0.86366,-1.05228 0.86366,-1.84645 0,-0.59563 -0.19855,-1.10192 -0.59563,-1.51887 -0.37723,-0.43679 -1.07214,-0.73461 -2.08471,-0.89344 l -1.22105,-0.17868 c -0.71475,-0.0992 -1.36994,-0.24818 -1.96557,-0.44673 -0.59563,-0.2184 -1.12177,-0.49636 -1.57842,-0.83389 -0.4368,-0.35737 -0.78425,-0.79417 -1.04235,-1.31038 -0.23826,-0.51621 -0.35738,-1.1317 -0.35738,-1.84645 0,-0.75447 0.13898,-1.40967 0.41694,-1.96558 0.27796,-0.57578 0.65519,-1.05228 1.1317,-1.42952 0.49635,-0.37723 1.08206,-0.65519 1.75711,-0.83388 0.67505,-0.19854 1.39973,-0.29782 2.17404,-0.29782 1.25084,0 2.29319,0.2184 3.12707,0.6552 0.85374,0.4368 1.59827,1.04235 2.23361,1.81668 l -1.57842,1.4295 c -0.33752,-0.4765 -0.83388,-0.90337 -1.48908,-1.2806 -0.65519,-0.39709 -1.47915,-0.59563 -2.47186,-0.59563 -0.99272,0 -1.74718,0.21839 -2.2634,0.65519 -0.49635,0.41695 -0.74454,0.99272 -0.74454,1.72733 0,0.75446 0.24819,1.30046 0.74454,1.63799 0.51622,0.33752 1.25082,0.58569 2.20383,0.74453 l 1.19127,0.17869 c 1.70747,0.2581 2.91858,0.75447 3.63334,1.48908 0.71475,0.71475 1.07214,1.65783 1.07214,2.82924 0,1.48908 -0.50629,2.66048 -1.51887,3.51422 -1.01256,0.85374 -2.40236,1.28061 -4.16941,1.28061 z m 8.09595,-18.2145 c -0.51621,0 -0.89345,-0.11912 -1.1317,-0.35737 -0.2184,-0.2581 -0.3276,-0.5857 -0.3276,-0.98279 v -0.38716 c 0,-0.39709 0.1092,-0.71476 0.3276,-0.95301 0.23825,-0.2581 0.61549,-0.38716 1.1317,-0.38716 0.51621,0 0.88351,0.12906 1.10192,0.38716 0.23824,0.23825 0.35737,0.55592 0.35737,0.95301 v 0.38716 c 0,0.39709 -0.11913,0.72469 -0.35737,0.98279 -0.21841,0.23825 -0.58571,0.35737 -1.10192,0.35737 z m -1.19126,2.48985 h 2.38252 v 15.36727 h -2.38252 z m 8.61303,15.36727 -5.39046,-15.36727 h 2.38252 l 2.68035,7.62407 1.66776,5.24155 h 0.14891 l 1.66777,-5.24155 2.73989,-7.62407 h 2.29318 l -5.42024,15.36727 z m 14.56938,0.35738 c -1.05228,0 -2.00529,-0.18862 -2.85902,-0.56585 -0.83388,-0.37724 -1.55857,-0.91331 -2.17406,-1.6082 -0.59563,-0.71476 -1.0622,-1.55857 -1.39973,-2.53143 -0.31766,-0.99272 -0.4765,-2.10457 -0.4765,-3.33553 0,-1.21112 0.15884,-2.31304 0.4765,-3.30576 0.33753,-0.99271 0.8041,-1.83652 1.39973,-2.53142 0.61549,-0.71476 1.34018,-1.26075 2.17406,-1.63799 0.85373,-0.37723 1.80674,-0.56585 2.85902,-0.56585 1.03243,0 1.95566,0.18862 2.76968,0.56585 0.81403,0.37724 1.50894,0.90337 2.08471,1.57842 0.57577,0.6552 1.01257,1.43945 1.31038,2.35274 0.31767,0.9133 0.47651,1.91595 0.47651,3.00794 v 1.1317 h -11.04895 v 0.71475 c 0,0.65519 0.0992,1.27068 0.29782,1.84645 0.2184,0.55593 0.51621,1.04236 0.89344,1.4593 0.39709,0.41694 0.8736,0.74454 1.42952,0.98279 0.57578,0.23825 1.22104,0.35738 1.9358,0.35738 0.97286,0 1.81667,-0.22833 2.53143,-0.68497 0.73461,-0.45665 1.30046,-1.11185 1.69754,-1.96558 l 1.69755,1.22104 c -0.49635,1.05228 -1.27068,1.90602 -2.32296,2.56121 -1.05228,0.63533 -2.3031,0.95301 -3.75247,0.95301 z m 0,-14.08666 c -0.65519,0 -1.25082,0.11912 -1.78689,0.35737 -0.53607,0.2184 -1.00265,0.53607 -1.39974,0.95301 -0.37722,0.41695 -0.67503,0.9133 -0.89344,1.48907 -0.2184,0.55593 -0.3276,1.17142 -0.3276,1.84647 v 0.20846 h 8.48774 v -0.3276 c 0,-1.36994 -0.37724,-2.46193 -1.1317,-3.27596 -0.73461,-0.83389 -1.7174,-1.25082 -2.94837,-1.25082 z"
       id="text4"
       aria-label="Massive"
       sodipodi:nodetypes="ccccccccccccccccccscccsscscscsssccccssscccsssssscscsscssccccscsccccccscccsccccscsccccssssccccscsccccccscccsccccscsccccsssscsscscsscsccccccccccccccccscccscccssccsccscccsccccsscccsccscs" />
  </g>
</svg>
